<?xml version="1.0" encoding="utf-8"?>
<svg version="1.1" xmlns:xlink="http://www.w3.org/1999/xlink" width="210px" height="60px" xmlns="http://www.w3.org/2000/svg">
  <defs>
    <filter x="10px" y="654px" width="210px" height="60px" filterUnits="userSpaceOnUse" id="filter31">
      <feOffset dx="5" dy="5" in="SourceAlpha" result="shadowOffsetInner" />
      <feGaussianBlur stdDeviation="2.5" in="shadowOffsetInner" result="shadowGaussian" />
      <feComposite in2="shadowGaussian" operator="atop" in="SourceAlpha" result="shadowComposite" />
      <feColorMatrix type="matrix" values="0 0 0 0 0  0 0 0 0 0  0 0 0 0 0  0 0 0 0.349019607843137 0  " in="shadowComposite" />
    </filter>
    <g id="widget32">
      <path d="M 10.5 669  A 14.5 14.5 0 0 1 25 654.5 L 195 654.5  A 14.5 14.5 0 0 1 209.5 669 L 209.5 689  A 14.5 14.5 0 0 1 195 703.5 L 25 703.5  A 14.5 14.5 0 0 1 10.5 689 L 10.5 669  Z " fill-rule="nonzero" fill="#70b603" stroke="none" fill-opacity="0.729411764705882" />
      <path d="M 10.5 669  A 14.5 14.5 0 0 1 25 654.5 L 195 654.5  A 14.5 14.5 0 0 1 209.5 669 L 209.5 689  A 14.5 14.5 0 0 1 195 703.5 L 25 703.5  A 14.5 14.5 0 0 1 10.5 689 L 10.5 669  Z " stroke-width="1" stroke="#797979" fill="none" />
    </g>
  </defs>
  <g transform="matrix(1 0 0 1 -10 -654 )">
    <use xlink:href="#widget32" filter="url(#filter31)" />
    <use xlink:href="#widget32" />
  </g>
</svg>